<?xml version="1.0" encoding="UTF-8"?>
<svg id="Layer_2" data-name="Layer 2" xmlns="http://www.w3.org/2000/svg" version="1.1" viewBox="0 0 599 96.6">
  <defs>
    <style>
      .cls-1 {
        fill: #000;
      }

      .cls-1, .cls-2 {
        stroke-width: 0px;
      }

      .cls-2 {
        fill: #fff;
      }
    </style>
  </defs>
  <g id="svg2">
    <g id="layer1">
      <g id="path3972">
        <path class="cls-2" d="M24.2,96.4c-8,0-16.7-4.2-21.1-10.1-2.8-3.7-3.6-7.8-2.5-11.9C10.5,39.7,51.7,21.7,84.4,12.7,120.3,2.9,155.9.9,163.5.9h.4s.2,0,.2,0c9.2-.5,18.6-.8,28-.8,87,0,171.5,21.8,253.3,42.9,37.8,9.8,73.5,19,108.9,26h.1s0,0,0,0c11.8,2.3,33,4.9,41.6,6,.8,0,1.4.5,1.9,1.1.5.6.7,1.3.6,2.1-.2,1.4-1.4,2.5-2.8,2.5-196.1,4-395.6,10.2-571.6,15.7Z"/>
        <path class="cls-1" d="M192.1.2c86.9,0,171.5,21.8,253.2,42.9,37.8,9.8,73.5,19,108.9,26h.3s0,0,0,0c11.9,2.3,32.9,4.9,41.5,6,1.5.2,2.5,1.5,2.4,3-.2,1.3-1.3,2.3-2.6,2.4-196.1,4-395.6,10.2-571.6,15.7-8,0-16.6-4.2-21-10-2.8-3.7-3.6-7.7-2.4-11.8,4.3-15.2,15-28.5,31.6-39.5,13.5-8.9,31.1-16.4,52.1-22.2C120.3,3,155.9,1,163.5,1s.3,0,.4,0c0,0,.1,0,.2,0,9.2-.5,18.6-.8,28-.8M192.1,0C182.8,0,173.5.3,164.1.8c0,0,0,0-.1,0s0,0,0,0c-.1,0-.2,0-.4,0C150.9.8,19.5,7.8.5,74.4c-3.5,12.3,11.6,22,23.7,22.1,190.5-5.9,381-11.8,571.6-15.7,1.5,0,2.7-1.1,2.9-2.6.2-1.6-1-3.1-2.6-3.3-7.9-1-29.8-3.7-41.8-6h0C441.3,46.6,318.8,0,192.1,0h0Z"/>
      </g>
    </g>
  </g>
</svg>
