<?xml version="1.0" encoding="UTF-8"?>
<svg id="Layer_2" data-name="Layer 2" xmlns="http://www.w3.org/2000/svg" version="1.1" viewBox="0 0 599 64.7">
  <defs>
    <style>
      .cls-1 {
        fill: #000;
      }

      .cls-1, .cls-2 {
        stroke-width: 0px;
      }

      .cls-2 {
        fill: #fff;
      }
    </style>
  </defs>
  <g id="svg2">
    <g id="layer1">
      <g id="use3767">
        <path class="cls-2" d="M266,64.6c-97.6-.6-152.8-1.6-243.8-15.6C7.9,46.8.2,44.6.1,39.5,0,26.5,21.6,19.9,56.6,13.6,88.9,7.7,159.8,1.1,214.1.5c18.5-.2,38.3-.4,57-.4,55.5,0,95.9,1.7,135.3,5.6,36.4,3.6,129.5,19.4,191.4,33.5-3.4,0-13.7-.1-26.3-.1s-39.2.2-54.3,1c-30.6,1.7-62.3,4.8-91.4,9-2,.3-6.2,1-11.5,1.9-15.7,2.6-42,7.1-59,8.8-32.2,3.3-62,4.2-89.3,4.7h0Z"/>
        <path class="cls-1" d="M271.1.3c55.4,0,95.9,1.7,135.3,5.6,36.1,3.6,128.4,19.2,190.3,33.2-4.2,0-13.8-.1-25.2-.1-16.4,0-39.2.2-54.2,1-30.7,1.7-62.3,4.8-91.4,9-2,.3-6.2,1-11.5,1.9-15.7,2.6-42,7.1-59,8.8-32.2,3.3-61.9,4.2-89.3,4.7-97.6-.6-152.8-1.6-243.7-15.6C8,46.7.3,44.5.2,39.5c0-6.2,5-11.3,15.6-15.6,10.9-4.4,26.7-7.6,40.7-10.1C88.9,7.9,159.9,1.2,214.1.6c18.5-.2,38.3-.4,57-.4h0M271.1,0c-18.2,0-37.1.2-57,.4-52.7.5-123.5,6.9-157.6,13.1C23.4,19.5-.1,25.9,0,39.5c0,5.1,7.4,7.4,22.2,9.7,92.1,14.2,147.8,15,243.8,15.6,30.5-.5,58.9-1.6,89.3-4.7,22.9-2.4,63-9.6,70.6-10.7,30.1-4.3,61.5-7.4,91.4-9,14.7-.8,36.8-1,54.2-1,15.6,0,27.5.2,27.5.2-62.4-14.3-156.6-30.2-192.6-33.8C361.6,1.1,318.7,0,271.1,0h0Z"/>
      </g>
    </g>
  </g>
</svg>
