<?xml version="1.0" encoding="UTF-8"?>
<svg id="Layer_2" data-name="Layer 2" xmlns="http://www.w3.org/2000/svg" version="1.1" viewBox="0 0 599 165.4">
  <defs>
    <style>
      .cls-1 {
        fill: #000;
      }

      .cls-1, .cls-2 {
        stroke-width: 0px;
      }

      .cls-2 {
        fill: #fff;
        fill-rule: evenodd;
      }
    </style>
  </defs>
  <g id="svg2">
    <g id="layer1">
      <g id="path1938">
        <path class="cls-2" d="M28.4,165.3c-8.3,0-18.3-12.1-23.9-28.9-5.1-15.3-5.8-32.3-1.9-47.8,4.9-19.5,16.6-36.2,34.7-49.8C71.5,13.1,116.3.1,170.4.1c110.3,0,253.7,54,426.1,160.5.8.5,1.9,1.4,2.3,2.6,0,.2,0,.2-.7.6-.2,0-.4.2-.6.3-125.2-32.8-267.2-69.9-379.7-69.9s-147.2,22.1-183,67.7c-1.8,2.2-3.9,3.4-6.4,3.4h0Z"/>
        <path class="cls-1" d="M170.4.2c50.8,0,109.5,11.7,174.6,34.8,75.1,26.7,159.7,68.9,251.5,125.6.8.5,1.8,1.3,2.3,2.6,0,0,0,0,0,0h0c0,0-.3.2-.6.4-.2,0-.3.2-.5.3-125.2-32.8-267.2-69.9-379.7-69.9s-147.3,22.2-183.1,67.8c-1.7,2.2-3.9,3.3-6.3,3.3-8.2,0-18.2-12.1-23.8-28.8-5.1-15.3-5.8-32.3-1.9-47.7,4.9-19.4,16.6-36.2,34.6-49.8,15.7-11.8,34.1-21.1,54.5-27.5C115.3,4,141.7.2,170.4.2M170.4,0C109.2,0,66.4,16.8,37.3,38.7c-65,48.8-29.5,126.7-8.8,126.7s4.7-1.1,6.5-3.4c38.9-49.6,104-67.7,182.9-67.7s248.5,35.6,379.7,69.9h0s0,0,0,0c1.1-.6,1.4-.7,1.3-1.1-.4-1.2-1.3-2.1-2.4-2.7C400.5,39.4,264,0,170.4,0h0Z"/>
      </g>
    </g>
  </g>
</svg>
