<?xml version="1.0" encoding="UTF-8"?>
<svg id="Layer_2" data-name="Layer 2" xmlns="http://www.w3.org/2000/svg" version="1.1" viewBox="0 0 599 128.3">
  <defs>
    <style>
      .cls-1 {
        fill: #000;
      }

      .cls-1, .cls-2 {
        stroke-width: 0px;
      }

      .cls-2 {
        fill: #fff;
      }
    </style>
  </defs>
  <g id="svg2">
    <g id="layer1">
      <g id="path3085">
        <path class="cls-2" d="M39.5,128.2c-21,0-34.6-9.7-38.3-27.3-3-14.1-.7-35.8,26.9-58.8C47.3,26,75.1,13,104.2,6.4,121.8,2.4,150.3.1,182.2.1c55.8,0,250.7,8.1,413.2,111.8,2.5,1.6,3.3,4.4,3.5,4.9,0,0-.1,0-.2,0h0c-1.7,0-9.1-2.8-20.3-7-45.3-17-165.5-62-284.2-62s-138.5,18.2-186.5,54.1c-21.9,16.4-47.4,26.2-68.2,26.2Z"/>
        <path class="cls-1" d="M182.2.2h0c61.5,0,130.4,8.1,194,22.9,83.3,19.3,157,49.2,219.2,88.9,2.3,1.5,3.2,4,3.4,4.7,0,0,0,0,0,0-1.7,0-9.1-2.8-20.2-6.9-22.6-8.5-64.7-24.3-115.1-37.6-61.4-16.2-118.3-24.5-169.2-24.5-75.7,0-138.5,18.2-186.5,54.1-21.9,16.4-47.4,26.2-68.1,26.2S5,118.4,1.3,100.9c-5.4-25.5,11.6-46,26.9-58.7C47.4,26.1,75.1,13.1,104.2,6.5,121.9,2.5,150.3.2,182.2.2h0M182.2,0c-34.5,0-61.7,2.6-78,6.3C47.7,19.1-8.2,57.2,1,100.9c4,18.9,19,27.4,38.5,27.4s45.8-9.5,68.2-26.2c53.8-40.2,120.1-54.1,186.4-54.1,147.8,0,295.6,69,304.5,69s.3,0,.4,0c0,0-.7-3.3-3.5-5.1C457.4,23.7,286.5,0,182.2,0h0Z"/>
      </g>
    </g>
  </g>
</svg>
