<?xml version="1.0" encoding="UTF-8"?>
<svg id="Layer_2" data-name="Layer 2" xmlns="http://www.w3.org/2000/svg" version="1.1" viewBox="0 0 599 114.2">
  <defs>
    <style>
      .cls-1 {
        fill: #000;
      }

      .cls-1, .cls-2 {
        stroke-width: 0px;
      }

      .cls-2 {
        fill: #fff;
        fill-rule: evenodd;
      }
    </style>
  </defs>
  <g id="svg2">
    <g id="layer1">
      <g id="path3154">
        <path class="cls-2" d="M184.7,114.1c-75,0-160.6-9.7-178.9-28.3-5.1-5.2-6.8-10.7-4.9-16.3,2.9-8.6,15.6-22,59.9-37.3,30.5-10.5,69.8-19.6,107.8-25C200.1,2.9,225.6.1,255.7.1c82.4,0,184.8,22.5,342.1,75.3-6.2-.8-13.5-1.1-21.6-1.1-36.4,0-87.8,7.4-147.4,15.9-64.5,9.2-137.5,19.7-208.2,23.1-11.3.5-23.3.8-35.8.8Z"/>
        <path class="cls-1" d="M255.7.3c39.4,0,81.2,4.9,131.5,15.5,57.2,12,125.7,31.5,209.4,59.5-5.9-.7-12.8-1-20.4-1-36.4,0-87.9,7.4-147.5,15.9-64.5,9.2-137.5,19.7-208.2,23-11.3.5-23.3.8-35.8.8-38.4,0-78.7-2.6-110.5-7.2-36.2-5.2-59.8-12.5-68.3-21-5.1-5.2-6.7-10.6-4.9-16.2,4.1-12.2,24.8-25.1,59.8-37.2,30.5-10.5,69.8-19.6,107.8-25C200.1,3,225.6.3,255.7.3h0M255.7,0c-31.9,0-59.1,3.2-87.1,7.1C80.8,19.4-26,53.8,5.7,85.9c18.3,18.5,104.5,28.3,179,28.3s24.4-.3,35.8-.8c135.6-6.5,279.7-38.9,355.7-38.9,8.5,0,16.2.4,22.9,1.3C421,16,326.7,0,255.7,0h0Z"/>
      </g>
    </g>
  </g>
</svg>
