<?xml version="1.0" encoding="UTF-8"?>
<svg id="Layer_2" data-name="Layer 2" xmlns="http://www.w3.org/2000/svg" version="1.1" viewBox="0 0 599 109.9">
  <defs>
    <style>
      .cls-1 {
        fill: #000;
      }

      .cls-1, .cls-2 {
        stroke-width: 0px;
      }

      .cls-2 {
        fill: #fff;
      }
    </style>
  </defs>
  <g id="svg2">
    <g id="layer1">
      <g id="path3095">
        <path class="cls-2" d="M132.7,109.8c-47.9,0-105.2-8.9-125-28.8C2.7,76,.1,70.4.1,64.4c0-12.9,9.3-31.6,53.4-47.5C80.9,7.1,117.8.5,147.5.2c2.1,0,4.3,0,6.4,0,32.3,0,68.7,3.3,130.2,11.9,63.4,8.8,154.8,23.3,311.8,48.7,1.7.3,2.7,2.3,3,4.1.2,1.5,0,3.4-1.5,4-2.8,1.3-73.5,9.9-161.6,18.7-65.6,6.6-190.5,18.1-290.5,22-4,.2-8.2.2-12.5.2Z"/>
        <path class="cls-1" d="M153.9.2c32.7,0,67.9,3.2,130.2,11.9,63.4,8.8,154.8,23.3,311.8,48.7,1.6.3,2.6,2.3,2.9,4,.2,1.4,0,3.3-1.4,3.9-2.8,1.3-73.5,9.9-161.6,18.7-152.8,15.3-247.6,20.3-290.5,22-4,.2-8.2.2-12.5.2-47.9,0-105.1-8.9-124.9-28.7C2.8,75.9.2,70.4.2,64.4c0-23.3,29-38.6,53.3-47.3C81,7.2,117.8.7,147.5.3c2.1,0,4.3,0,6.4,0h0M153.9,0c-2.1,0-4.3,0-6.4,0C93.4.7,0,22.7,0,64.4c0,34.1,80.3,45.5,132.7,45.5s8.6,0,12.5-.2c177.4-6.9,446.7-38.2,452.2-40.8,2.9-1.3,1.6-7.9-1.5-8.4C292,11.4,215.6,0,153.9,0h0Z"/>
      </g>
    </g>
  </g>
</svg>
