<svg width="1040" height="1024" viewBox="0 0 1040 1024" fill="none" xmlns="http://www.w3.org/2000/svg">
<g filter="url(#filter0_d_15_142)">
<path d="M275.733 853.334C213.156 853.334 160 831.468 116.267 787.734C72.5334 744.001 50.6667 690.845 50.6667 628.268C50.6667 572.801 68.4445 524.09 104 482.134C139.556 440.179 184.711 414.934 239.467 406.401C253.689 337.423 287.111 281.068 339.733 237.334C392.356 193.601 453.156 171.734 522.133 171.734C601.778 171.734 668.978 200.712 723.733 258.668C778.489 316.623 805.867 386.134 805.867 467.201V492.801C857.067 491.379 900.445 507.912 936 542.401C971.556 576.89 989.333 620.445 989.333 673.068C989.333 722.134 971.556 764.445 936 800.001C900.445 835.557 858.133 853.334 809.067 853.334H275.733Z" fill="url(#paint0_linear_15_142)"/>
</g>
<g filter="url(#filter1_i_15_142)">
<path d="M521.07 834C498.694 834 479.675 826.159 464.012 810.478C454.926 801.381 448.476 791.153 444.66 779.795C439.934 765.722 452.54 753.353 467.369 753.353H473.015C484.726 753.353 493.658 764.216 501.939 772.507C507.085 777.659 513.462 780.235 521.07 780.235C528.677 780.235 535.054 777.659 540.201 772.507C545.347 767.354 547.92 760.97 547.92 753.353C547.92 745.736 545.347 739.352 540.201 734.199C535.054 729.047 528.677 726.471 521.07 726.471H72.4999C69.9999 721.5 66.9998 713.5 61.4999 699.588C57.5 685 56.5 682.5 55 672.706H521.07C543.445 672.706 562.464 680.547 578.127 696.228C593.79 711.909 601.621 730.951 601.621 753.353C601.621 775.755 593.79 794.797 578.127 810.478C562.464 826.159 543.445 834 521.07 834ZM59 565.176C62 555.5 64 550.5 68.5 538.294C75 524 79.5 517 83 511.412H628.472C640.107 511.412 649.728 507.603 657.336 499.987C664.944 492.37 668.747 482.737 668.747 471.088C668.747 459.439 664.944 449.806 657.336 442.19C649.728 434.573 640.107 430.765 628.472 430.765C616.836 430.765 607.215 434.573 599.607 442.19C598.397 443.401 597.283 444.664 596.266 445.977C587.177 457.709 576.174 471.088 561.345 471.088C546.516 471.088 533.999 458.823 537.92 444.505C542.07 429.352 549.99 415.923 561.681 404.218C579.805 386.073 602.069 377 628.472 377C654.875 377 677.138 386.073 695.262 404.218C713.386 422.364 722.448 444.654 722.448 471.088C722.448 497.523 713.386 519.813 695.262 537.958C677.138 556.104 654.875 565.176 628.472 565.176H59ZM735.575 776.806C721.273 780.732 709.023 768.2 709.023 753.353C709.023 738.506 722.386 727.49 734.104 718.391C735.416 717.372 736.677 716.257 737.887 715.046C745.495 707.429 749.299 697.796 749.299 686.147C749.299 674.498 745.495 664.865 737.887 657.249C730.28 649.632 720.658 645.824 709.023 645.824H51C51 635 51 633.788 51 618.941C51.5 604 52.5 599 53.5 592.059H709.023C735.426 592.059 757.69 601.132 775.814 619.277C793.938 637.423 803 659.713 803 686.147C803 712.581 793.938 734.871 775.814 753.017C764.123 764.721 750.71 772.651 735.575 776.806Z" fill="url(#paint1_linear_15_142)"/>
</g>
<defs>
<filter id="filter0_d_15_142" x="0.666748" y="121.734" width="1038.67" height="781.6" filterUnits="userSpaceOnUse" color-interpolation-filters="sRGB">
<feFlood flood-opacity="0" result="BackgroundImageFix"/>
<feColorMatrix in="SourceAlpha" type="matrix" values="0 0 0 0 0 0 0 0 0 0 0 0 0 0 0 0 0 0 127 0" result="hardAlpha"/>
<feOffset/>
<feGaussianBlur stdDeviation="25"/>
<feComposite in2="hardAlpha" operator="out"/>
<feColorMatrix type="matrix" values="0 0 0 0 0 0 0 0 0 0 0 0 0 0 0 0 0 0 0.25 0"/>
<feBlend mode="normal" in2="BackgroundImageFix" result="effect1_dropShadow_15_142"/>
<feBlend mode="normal" in="SourceGraphic" in2="effect1_dropShadow_15_142" result="shape"/>
</filter>
<filter id="filter1_i_15_142" x="51" y="377" width="752" height="461" filterUnits="userSpaceOnUse" color-interpolation-filters="sRGB">
<feFlood flood-opacity="0" result="BackgroundImageFix"/>
<feBlend mode="normal" in="SourceGraphic" in2="BackgroundImageFix" result="shape"/>
<feColorMatrix in="SourceAlpha" type="matrix" values="0 0 0 0 0 0 0 0 0 0 0 0 0 0 0 0 0 0 127 0" result="hardAlpha"/>
<feOffset dy="4"/>
<feGaussianBlur stdDeviation="2"/>
<feComposite in2="hardAlpha" operator="arithmetic" k2="-1" k3="1"/>
<feColorMatrix type="matrix" values="0 0 0 0 0 0 0 0 0 0 0 0 0 0 0 0 0 0 0.25 0"/>
<feBlend mode="normal" in2="shape" result="effect1_innerShadow_15_142"/>
</filter>
<linearGradient id="paint0_linear_15_142" x1="931.876" y1="591.075" x2="136" y2="743.538" gradientUnits="userSpaceOnUse">
<stop stop-color="#4DDBFF"/>
<stop offset="1" stop-color="#3D73CC"/>
</linearGradient>
<linearGradient id="paint1_linear_15_142" x1="20" y1="625.5" x2="847.5" y2="625.5" gradientUnits="userSpaceOnUse">
<stop stop-color="#FAFAFA" stop-opacity="0"/>
<stop offset="0.28" stop-color="#FAFAFA" stop-opacity="0.980392"/>
</linearGradient>
</defs>
</svg>
